<svg xmlns="http://www.w3.org/2000/svg" width="1284" height="219"><defs><linearGradient id="bgobj-b" x1="-.083" y1="-1.154" x2="1.936" y2="1.166" gradientUnits="objectBoundingBox"><stop offset="0" stop-color="#058dd2"/><stop offset="1" stop-color="#fff"/></linearGradient><clipPath id="bgobj-a"><rect width="1284" height="219" rx="5" fill="#058dd2"/></clipPath><style>.bgobj-d{opacity:.59;fill:url(#bgobj-b)}</style></defs><g opacity=".49" clip-path="url(#bgobj-a)"><path class="bgobj-d" d="M1097.46 160.908c-31.262 30.348-79.535 59.864-132.881 80.104-109.758 41.688-240.997 44.095-289.83-66.443-26.987-61.08 25.67-89.1 45.288-141.075s-29.161-102.485-6.366-156.497a80.886 80.886 0 0129.856-36.075 79.541 79.541 0 0160.06-11.787c17.596 3.596 33.944 11.311 50.071 19.004 26.434 12.616 52.446 24.513 79.544 34.047 47.73 16.792 96.386 15.779 144.536 28.729 25.834 6.968 50.73 19.62 67.755 39.946 57.921 69.076 7.764 155.916-48.033 210.047z"/><path class="bgobj-d" d="M1128.556 473.501c-43.015-5.3-95.626-24.384-143.916-53.25-99.383-59.365-180.45-160.16-121.904-267.686 32.35-59.422 86.416-35.98 139.622-53.345s64.004-87.135 120.752-103.307a80.418 80.418 0 0146.727.608 76.189 76.189 0 0145.606 39.41c7.75 15.977 11.466 33.569 15.068 50.972 5.898 28.534 12.114 56.287 20.868 83.402 15.418 47.761 45.566 85.055 64.3 130.729 10.034 24.518 14.975 51.876 9.061 77.918-20.057 88.563-119.437 104.03-196.184 94.549z"/></g></svg>