<svg xmlns="http://www.w3.org/2000/svg" width="169.98" height="14.48"><defs><linearGradient id="linear-gradient" x1=".166" y1="-1.232" x2=".611" y2="1.998" gradientUnits="objectBoundingBox"><stop offset="0" stop-color="#006592"/><stop offset="1" stop-color="#45b4e6"/></linearGradient></defs><path id="Path_116" data-name="Path 116" d="M11.12-3.12a5.143 5.143 0 01-2.52.6A4.321 4.321 0 014.06-7a4.31 4.31 0 014.58-4.48 4.738 4.738 0 013.62 1.58l2.08-1.92a7.463 7.463 0 00-5.86-2.42C4.02-14.24.78-11.22.78-7S4.02.24 8.42.24a9.661 9.661 0 005.66-1.78v-5.68h-2.96zm9.18.52v-3.24h6.5v-2.52h-6.5v-3.04h7.36V-14H17.08V0h10.84v-2.6zM40.14-14v8.5L33.18-14H30.5V0h3.2v-8.5L40.68 0h2.66v-14zm9.74 11.4v-3.24h6.5v-2.52h-6.5v-3.04h7.36V-14H46.66V0H57.5v-2.6zM64.68.24c4 0 5.94-2 5.94-4.34 0-5.14-8.14-3.36-8.14-5.94 0-.88.74-1.6 2.66-1.6a7.907 7.907 0 013.88 1.1l1-2.46a9.391 9.391 0 00-4.86-1.24c-3.98 0-5.9 1.98-5.9 4.36 0 5.2 8.14 3.4 8.14 6.02 0 .86-.78 1.5-2.7 1.5a8.235 8.235 0 01-4.62-1.46l-1.1 2.44a9.979 9.979 0 005.7 1.62zM72.84 0h3.24v-14h-3.24zM84 .24c4 0 5.94-2 5.94-4.34 0-5.14-8.14-3.36-8.14-5.94 0-.88.74-1.6 2.66-1.6a7.907 7.907 0 013.88 1.1l1-2.46a9.391 9.391 0 00-4.86-1.24c-3.98 0-5.9 1.98-5.9 4.36 0 5.2 8.14 3.4 8.14 6.02 0 .86-.78 1.5-2.7 1.5a8.235 8.235 0 01-4.62-1.46l-1.1 2.44A9.979 9.979 0 0084 .24zM97.82 0h6.36c4.58 0 7.72-2.76 7.72-7s-3.14-7-7.72-7h-6.36zm3.24-2.66v-8.68h2.96c2.78 0 4.6 1.66 4.6 4.34s-1.82 4.34-4.6 4.34zM123.98-14v8.5l-6.96-8.5h-2.68V0h3.2v-8.5l6.98 8.5h2.66v-14zm9.74 11.4v-3.24h6.5v-2.52h-6.5v-3.04h7.36V-14H130.5V0h10.84v-2.6zM149.98-14h-6.06V0h3.24v-3.86h2.82c3.74 0 6.08-1.94 6.08-5.06 0-3.14-2.34-5.08-6.08-5.08zm-.18 7.5h-2.64v-4.86h2.64c1.98 0 2.98.9 2.98 2.44 0 1.52-1 2.42-2.98 2.42zM170.76 0l-3.14-4.5a4.552 4.552 0 002.88-4.42c0-3.14-2.34-5.08-6.08-5.08h-6.06V0h3.24v-3.9h2.98l2.7 3.9zm-3.54-8.92c0 1.52-1 2.44-2.98 2.44h-2.64v-4.88h2.64c1.98 0 2.98.9 2.98 2.44z" transform="translate(-.78 14.24)" fill="url(#linear-gradient)"/></svg>