<svg xmlns="http://www.w3.org/2000/svg" width="59.203" height="69.041"><defs><linearGradient id="linear-gradient" x1=".5" y1="1" x2=".5" gradientUnits="objectBoundingBox"><stop offset="0" stop-color="#1d2b37"/><stop offset="1" stop-color="#5e6a74"/></linearGradient></defs><g id="ai-status" transform="translate(-6.739 -2.25)" fill="url(#linear-gradient)"><path id="Path_135" data-name="Path 135" d="M12.375 27h24.658v4.932H12.375z" transform="translate(6.717 29.497)"/><path id="Path_136" data-name="Path 136" d="M14.625 31.5H29.42v4.931H14.625z" transform="translate(9.399 34.86)"/><path id="Path_137" data-name="Path 137" d="M31.337 18a23.391 23.391 0 01-4.592 5.284c-2.641 2.446-5.37 4.973-5.37 9.51h4.931c0-2.268 1.3-3.575 3.785-5.883A24.618 24.618 0 0036.847 18z" transform="translate(17.443 18.771)"/><path id="Path_138" data-name="Path 138" d="M30.545 29.1a2.466 2.466 0 01-2.2-1.363l-4.252-8.5H15.75V14.3h9.863a2.466 2.466 0 012.2 1.363l2.727 5.449L38.2 5.8a2.569 2.569 0 014.408 0l4.254 8.5H55.2v4.932h-9.861a2.466 2.466 0 01-2.2-1.363l-2.731-5.449-7.659 15.312a2.466 2.466 0 01-2.204 1.368z" transform="translate(10.739 2.744)"/><path id="Path_139" data-name="Path 139" d="M18.636 42.046a17.716 17.716 0 01-6.941-15.139A19.75 19.75 0 0131.421 7.182V2.25A24.684 24.684 0 006.763 26.908 22.637 22.637 0 0015.3 45.687c2.494 2.306 3.8 3.612 3.8 5.878h4.932c-.008-4.537-2.746-7.065-5.396-9.519z"/></g></svg>