<svg xmlns="http://www.w3.org/2000/svg" width="56.5" height="56.502"><defs><linearGradient id="linear-gradient" x1=".5" y1="1" x2=".5" gradientUnits="objectBoundingBox"><stop offset="0" stop-color="#1d2b37"/><stop offset="1" stop-color="#5e6a74"/></linearGradient></defs><g id="umbrella-sharp" transform="translate(-2.25 -2.25)" fill="url(#linear-gradient)"><path id="Path_140" data-name="Path 140" d="M9.234 19.822l-.034-.038a5.952 5.952 0 00-.35-.265z" transform="translate(5.24 13.706)"/><path id="Path_141" data-name="Path 141" d="M26.935 19.806l.33-.267c-.1.074-.2.147-.3.226z" transform="translate(19.591 13.721)"/><path id="Path_142" data-name="Path 142" d="M56.624 21.727A28.32 28.32 0 0032.518 4.34V2.25h-4.036v2.09A28.2 28.2 0 002.25 32.518v2.839l1.544-1.413a7.9 7.9 0 0110.27-.741l.027.022c.118.084.235.172.35.265a6.253 6.253 0 01.5.456l1.43 1.426 1.429-1.428a7.894 7.894 0 0110.265-.728l.416.312V52.7a2.018 2.018 0 01-4.036 0v-2.02h-4.034v2.02a6.054 6.054 0 1012.107 0V33.528l.414-.312a7.894 7.894 0 0110.265.728l1.428 1.428 1.426-1.428a6.838 6.838 0 01.511-.459c.1-.079.2-.152.3-.226l.032-.027a7.96 7.96 0 0110.317.712l1.543 1.412v-2.838a28.2 28.2 0 00-2.125-10.791z"/></g></svg>