<svg xmlns="http://www.w3.org/2000/svg" width="53.501" height="53.501"><defs><linearGradient id="linear-gradient" x1=".5" y1="1" x2=".5" gradientUnits="objectBoundingBox"><stop offset="0" stop-color="#1d2b37"/><stop offset="1" stop-color="#5e6a74"/></linearGradient></defs><path id="tectile" d="M49.22 32.813H26.251a6.563 6.563 0 00-6.563 6.563v9.844a3.2 3.2 0 01-.948 2.307 3.128 3.128 0 01-2.333.974H3.281a3.153 3.153 0 01-2.307-.974A3.153 3.153 0 010 49.22V36.095a3.153 3.153 0 01.974-2.307 3.153 3.153 0 012.307-.974h9.844a6.326 6.326 0 004.641-1.922 6.316 6.316 0 001.922-4.641V3.281a3.153 3.153 0 01.974-2.307A3.153 3.153 0 0122.969 0H49.22a3.131 3.131 0 012.333.974 3.189 3.189 0 01.947 2.307v26.251a3.131 3.131 0 01-.974 2.333 3.189 3.189 0 01-2.306.948z" transform="translate(.5 .5)" stroke="rgba(0,0,0,0)" stroke-width="1" fill="url(#linear-gradient)"/></svg>