<svg xmlns="http://www.w3.org/2000/svg" width="16.583" height="16.275"><defs><linearGradient id="linear-gradient" x1=".5" y1="1" x2=".5" gradientUnits="objectBoundingBox"><stop offset="0" stop-color="#1d2b37"/><stop offset="1" stop-color="#5e6a74"/></linearGradient></defs><path id="Icon" d="M997-94.408h11.17l-4.88 4.88a1.008 1.008 0 000 1.42 1 1 0 001.41 0l6.59-6.59a1 1 0 000-1.41l-6.58-6.6a1 1 0 00-.705-.293 1 1 0 00-.705.293 1 1 0 000 1.41l4.87 4.89H997a1 1 0 00-1 1 1 1 0 001 1z" transform="translate(-995.5 103.5)" stroke="rgba(0,0,0,0)" stroke-width="1" fill-rule="evenodd" fill="url(#linear-gradient)"/></svg>