<svg xmlns="http://www.w3.org/2000/svg" width="16.673" height="16.265"><defs><linearGradient id="linear-gradient" x1=".5" y1="1" x2=".5" gradientUnits="objectBoundingBox"><stop offset="0" stop-color="#1d2b37"/><stop offset="1" stop-color="#5e6a74"/></linearGradient></defs><path id="Arrow" d="M41.583-96.408h-11.17l4.88-4.88a1.008 1.008 0 000-1.42 1 1 0 00-.7-.293 1 1 0 00-.705.293l-6.59 6.59a1 1 0 000 1.41l6.59 6.59a1 1 0 001.41 0 1 1 0 000-1.41l-4.88-4.88h11.17a1 1 0 001-1 1 1 0 00-1.005-1z" transform="translate(-26.41 103.5)" stroke="rgba(0,0,0,0)" stroke-width="1" fill-rule="evenodd" fill="url(#linear-gradient)"/></svg>