<svg xmlns="http://www.w3.org/2000/svg" width="15.953" height="15.952"><path id="ios-call" d="M15.046 12.219a12.612 12.612 0 00-2.632-1.761c-.789-.379-1.078-.371-1.636.031-.465.336-.765.648-1.3.531a7.758 7.758 0 01-2.613-1.933 7.7 7.7 0 01-1.932-2.615c-.113-.539.2-.836.531-1.3.4-.558.414-.848.031-1.636A12.356 12.356 0 003.733.906C3.159.332 3.033.457 2.714.57a5.758 5.758 0 00-.933.5A2.817 2.817 0 00.66 2.249c-.223.48-.48 1.375.832 3.71a20.7 20.7 0 003.64 4.854h0a20.777 20.777 0 004.854 3.64c2.335 1.312 3.23 1.054 3.71.832a2.766 2.766 0 001.192-1.113 5.837 5.837 0 00.5-.933c.108-.317.237-.446-.342-1.02z" fill="#fff" stroke="rgba(0,0,0,0)" stroke-width="1"/></svg>