<svg xmlns="http://www.w3.org/2000/svg" width="12.85" height="17.99"><g id="location" transform="translate(-6.75 -2.25)" fill="#ccc"><path id="Path_117" data-name="Path 117" d="M18.32 12.535a1.285 1.285 0 11-1.285-1.285 1.285 1.285 0 011.285 1.285z" transform="translate(-3.86 -3.86)"/><path id="Path_118" data-name="Path 118" d="M13.175 2.25A6.3 6.3 0 006.75 8.394c0 1.613.735 3.759 2.185 6.376a47.123 47.123 0 003.213 4.948 1.275 1.275 0 002.057 0 47.31 47.31 0 003.213-4.948c1.448-2.617 2.183-4.762 2.183-6.376a6.3 6.3 0 00-6.426-6.144zm0 9a2.57 2.57 0 112.57-2.57 2.57 2.57 0 01-2.57 2.565z"/></g></svg>