<svg xmlns="http://www.w3.org/2000/svg" width="68.777" height="65.479"><defs><linearGradient id="linear-gradient" x1=".5" y1="1" x2=".5" gradientUnits="objectBoundingBox"><stop offset="0" stop-color="#1d2b37"/><stop offset="1" stop-color="#5e6a74"/></linearGradient></defs><g id="stethoscope" transform="translate(0 -11.508)"><g id="Group_18" data-name="Group 18" transform="translate(0 11.508)"><g id="Group_17" data-name="Group 17"><path id="Path_124" data-name="Path 124" d="M68.694 48.2a8.024 8.024 0 00-6.8-6.8v-2.08c0-5.75-4.371-10.431-9.743-10.431-5.218 0-9.586 4.539-9.743 10.119h.066l-.066.011v22.59c0 7.222-5.4 13.086-12.036 13.086S18.34 68.823 18.34 61.609v-1.957c1.662 0 3.439-1.2 3.439-4.585v-2.883c7.357-1.881 12.609-8.2 12.609-15.36v-2.39H32.1l-.048-14.919a5.737 5.737 0 00-4.72-5.615 3.421 3.421 0 10-.078 2.337 3.439 3.439 0 012.5 3.281l.046 14.916h-2.29v2.423a9.115 9.115 0 01-6.6 8.552 10.423 10.423 0 01-6.3 0 9.11 9.11 0 01-6.584-8.552v-2.423H4.585v-14.9a3.439 3.439 0 012.545-3.307 3.455 3.455 0 10-.071-2.327 5.731 5.731 0 00-4.766 5.634v14.9H0v2.384c0 7.17 5.256 13.489 12.609 15.366v2.883c0 3.38 1.777 4.585 3.439 4.585v1.957c0 8.482 6.427 15.378 14.328 15.378S44.7 70.083 44.7 61.609V39.075c.115-4.35 3.459-7.89 7.451-7.89 4.108 0 7.451 3.65 7.451 8.139V41.4a8.024 8.024 0 109.088 6.8zM24.072 16.094a1.146 1.146 0 111.146-1.146 1.146 1.146 0 01-1.146 1.146zM10.316 13.8a1.146 1.146 0 11-1.146 1.148 1.146 1.146 0 011.146-1.148zM2.293 36.819v-.092h3.438v.131a11.389 11.389 0 008.182 10.732 12.755 12.755 0 007.7 0A11.392 11.392 0 0029.8 36.858v-.131h2.3v.092c0 6.381-4.92 11.987-11.7 13.345a16.351 16.351 0 01-4.836.237 14.971 14.971 0 01-1.583-.24C7.208 48.806 2.293 43.2 2.293 36.819zM16.048 57.36c-1.032 0-1.146-1.6-1.146-2.293v-2.432c.092.011.186.016.279.025.115.013.229.022.344.032.542.048 1.089.08 1.64.081h.057c.55 0 1.1-.033 1.635-.081.115-.01.236-.019.354-.032.091-.01.185-.014.275-.025v2.432c0 .688-.115 2.293-1.146 2.293zm44.7-2.293a5.731 5.731 0 115.731-5.731 5.731 5.731 0 01-5.727 5.731z" transform="translate(0 -11.508)" fill="url(#linear-gradient)"/></g></g><g id="Group_20" data-name="Group 20" transform="translate(57.314 45.897)"><g id="Group_19" data-name="Group 19"><path id="Path_125" data-name="Path 125" d="M403.439 251.515a3.439 3.439 0 103.439 3.439 3.439 3.439 0 00-3.439-3.439zm0 4.585a1.146 1.146 0 111.146-1.146 1.146 1.146 0 01-1.146 1.146z" transform="translate(-400 -251.515)" fill="url(#linear-gradient)"/></g></g></g></svg>