<svg xmlns="http://www.w3.org/2000/svg" width="42.721" height="61"><g id="maternity" transform="translate(-76.71)"><g id="Group_21" data-name="Group 21" transform="translate(76.71)" fill="#fff"><path id="Path_126" data-name="Path 126" d="M118.094 1.957A6.01 6.01 0 00113.695 0H99.6a1.192 1.192 0 00-1.025.584C97.489 2.413 96.794 3.846 96.236 5c-1.408 2.9-1.526 3.151-4.4 3.1a10.3 10.3 0 00-6.315 1.525 8.867 8.867 0 00-3.543 4.471 9.132 9.132 0 00-.156 5.675A9.415 9.415 0 0084.5 24a3.674 3.674 0 00-.478 1.155 4.047 4.047 0 00-.088.638 15.51 15.51 0 00-7.169 13.986c.465 5.141 3.827 9.414 9.293 11.889-1.077 2.332-1.658 5.94-.318 8.665a1.191 1.191 0 001.07.667h8.767a1.191 1.191 0 100-2.383h-7.962a9.205 9.205 0 01.7-6.133 11.793 11.793 0 002.639.278c4.128 0 8.993-1.727 10.7-4.194a1.191 1.191 0 10-1.959-1.356c-.714 1.032-2.68 2.083-5.009 2.678a11.743 11.743 0 01-6.51.074c-5.406-2.057-8.614-5.751-9.034-10.4a13.12 13.12 0 016.137-11.8 21.073 21.073 0 012.623.431l20.772 4.759c5.976 7.259 7.467 15.665 4.541 25.668h-6.934a1.191 1.191 0 000 2.383h7.818a1.191 1.191 0 001.137-.834 32.89 32.89 0 001.226-16.69 27.249 27.249 0 00-4.393-10 5.118 5.118 0 002.606-.949 6.089 6.089 0 002.412-4.433L119.4 5.841a4.983 4.983 0 00-1.31-3.884zm-17.812.426h7.625a6.635 6.635 0 01-4.7 5.492 18 18 0 01-6.127.571 18.221 18.221 0 001.3-2.408 56.338 56.338 0 011.9-3.655zm14.429 25.469a3.751 3.751 0 01-1.429 2.742 2.833 2.833 0 01-2.314.438l-23.157-5.306a13.44 13.44 0 00-1.427-.2 2.794 2.794 0 01.691-.918 4.8 4.8 0 013.913-1.054l17.547 3.131a1.191 1.191 0 001.4-1.122l.4-9.442 5.461 1.3zm2.323-22.259l-.986 9.443-6.563-1.566a1.192 1.192 0 00-1.467 1.108l-.408 9.523-16.203-2.891a7.2 7.2 0 00-5.226 1.1 6.757 6.757 0 01-1.964-7.41c.836-2.322 3.245-4.7 7.489-4.424h.029c.7.028 1.478.09 2.307.156 1.38.109 2.914.23 4.475.23a17.726 17.726 0 005.422-.721c3.558-1.154 5.7-3.762 6.389-7.758h3.365a3.591 3.591 0 012.629 1.169 2.63 2.63 0 01.711 2.041z" transform="translate(-76.71)"/><path id="Path_127" data-name="Path 127" d="M136.6 273.624a4.544 4.544 0 00-6.037 6.781l5.211 5.025a1.191 1.191 0 001.654 0l5.207-5.025a4.543 4.543 0 00-6.035-6.781zm5.036 3.55a2.143 2.143 0 01-.656 1.517l-4.38 4.227-4.382-4.226a2.158 2.158 0 011.463-3.71h.04a2.145 2.145 0 011.5.6l.554.534a1.192 1.192 0 001.653 0l.555-.535a2.156 2.156 0 013.654 1.592z" transform="translate(-122.923 -240.12)"/><path id="Path_128" data-name="Path 128" d="M271.155 492a1.191 1.191 0 100 2.383h.007a1.191 1.191 0 10-.007-2.383z" transform="translate(-246.94 -433.383)"/></g></g></svg>