<svg xmlns="http://www.w3.org/2000/svg" width="61.132" height="63.24"><defs><linearGradient id="linear-gradient" x1=".5" y1="1" x2=".5" gradientUnits="objectBoundingBox"><stop offset="0" stop-color="#1d2b37"/><stop offset="1" stop-color="#5e6a74"/></linearGradient></defs><g id="ultrasound" transform="translate(-32 -16)" fill="url(#linear-gradient)"><path id="Path_129" data-name="Path 129" d="M92.078 33.918h-6.324a3.166 3.166 0 01-3.162-3.162V26.54a5.276 5.276 0 00-5.27-5.27h-2.108a5.276 5.276 0 00-5.27 5.27v2.289a3.167 3.167 0 00-2.108 2.981v5.76l-1.754 1.169a3.162 3.162 0 00-.479.393 18.944 18.944 0 00-3.817-.856 6.154 6.154 0 001.314-4.742c-.42-2.833-2.888-5.478-6.444-6.908l-.013-.006h-.011a22.633 22.633 0 01-7.77-5.736v-3.83A1.054 1.054 0 0047.81 16h-8.432a1.054 1.054 0 00-1.054 1.054v3.162H37.27a5.276 5.276 0 00-5.27 5.27v52.7a1.054 1.054 0 001.054 1.054h40.052a5.266 5.266 0 003.956-8.746 24.285 24.285 0 002.363-12.439 25.163 25.163 0 00-2.745-9.237 3.275 3.275 0 00.531-.726 1.053 1.053 0 00.111-.471V41.37a3.156 3.156 0 00-1.408-2.631L74.16 37.57v-5.76a3.167 3.167 0 00-2.108-2.981V26.54a3.166 3.166 0 013.162-3.162h2.108a3.166 3.166 0 013.162 3.162v4.216a5.276 5.276 0 005.27 5.27h6.324a1.054 1.054 0 100-2.108zM71 48.674c-2.767 0-3.875-.976-4.216-1.38v-1.85a8.479 8.479 0 008.432 0v1.85c-.343.406-1.451 1.38-4.216 1.38zm-9.983-14.832c.224 1.513-.484 3.008-2.049 4.339a31.351 31.351 0 00-14.32 6.028V26.55c1.83.984 5.24 2.073 11.382 2.1 2.738 1.144 4.687 3.168 4.987 5.192zM46.756 18.108v3.162a1.054 1.054 0 00.235.664 26.162 26.162 0 004.783 4.378c-5.838-.65-7.3-2.47-7.321-2.492a.3.3 0 01.019.027l-.069.046a5.288 5.288 0 00-3.97-3.572v-2.213zm-12.648 7.378a3.166 3.166 0 013.162-3.162h2.108a3.166 3.166 0 013.162 3.162v28.458a1.054 1.054 0 00.414.837l11.73 8.97-4.751 6.335-15.825-11.412zM56.1 77.132h-8.29v-5.978zm-21.992 0V61.273L45.7 69.634v7.5zm39 0H60.042a1.052 1.052 0 01-.571-.168l-7.828-5.645 4.715-6.287 4.514 3.452a1.054 1.054 0 001.032.142l2.379-.952a1.054 1.054 0 011.445.978v1.1a1.054 1.054 0 001.054 1.054h6.324a3.162 3.162 0 010 6.324zm2.224-7.938a5.238 5.238 0 00-2.224-.494h-5.27v-.048a3.162 3.162 0 00-4.338-2.936l-1.823.729-17.029-13.022V47.01c5.729-5.475 14.057-6.669 14.816-6.767a17.279 17.279 0 015.23.81 2.548 2.548 0 00-.02.317v6.25a1.053 1.053 0 00.111.472c.138.275 1.482 2.69 6.213 2.69a9.415 9.415 0 003.939-.748 23.1 23.1 0 012.39 8.231 21.957 21.957 0 01-1.997 10.929zm-2.811-30.183l2.223 1.482a1.052 1.052 0 01.469.877v1.552a6.554 6.554 0 01-8.432 0V41.37a1.052 1.052 0 01.469-.877l2.223-1.482a1.054 1.054 0 00.469-.877V31.81a1.054 1.054 0 012.108 0v6.324a1.054 1.054 0 00.469.877z"/><circle id="Ellipse_132" data-name="Ellipse 132" cx=".873" cy=".873" r=".873" transform="translate(72.172 52.86)"/></g></svg>