<svg xmlns="http://www.w3.org/2000/svg" width="58.002" height="67.719"><defs><linearGradient id="linear-gradient" x1=".5" y1="1" x2=".5" gradientUnits="objectBoundingBox"><stop offset="0" stop-color="#1d2b37"/><stop offset="1" stop-color="#5e6a74"/></linearGradient></defs><g id="nurse" transform="translate(-36.736)"><g id="Group_23" data-name="Group 23" transform="translate(63.006 2.516)"><g id="Group_22" data-name="Group 22"><path id="Path_130" data-name="Path 130" d="M239.829 20.768h-.753v-.753a.989.989 0 10-1.978 0v.753h-.753a.989.989 0 100 1.978h.753v.754a.989.989 0 101.978 0v-.753h.753a.989.989 0 100-1.978z" transform="translate(-235.357 -19.026)" fill="url(#linear-gradient)"/></g></g><g id="Group_25" data-name="Group 25" transform="translate(36.736)"><g id="Group_24" data-name="Group 24"><path id="Path_131" data-name="Path 131" d="M94.7 64.337l-2.89-16.919a4.848 4.848 0 00-3.4-3.847l-12.974-3.914a2.155 2.155 0 00-1.659.172 2.5 2.5 0 01-.8-1.763v-3.238l.1-.086.157-.138h1.271a6.318 6.318 0 006.306-6.718l-.352-5.563v-.083a2.983 2.983 0 00-.034-.447l-.394-6.23a.989.989 0 10-1.974.125l.233 3.686a2.972 2.972 0 00-.811-.113h-.055a1.788 1.788 0 00-1.34-.8c-10.265-.924-13.22-3.989-15.378-6.228-.449-.465-1.184-.5-2.186-.106A7.644 7.644 0 0053.751 19v.271a2.967 2.967 0 00-.572.1l.305-4.818A8.308 8.308 0 0157 8.254l.075.2a3.394 3.394 0 003.152 2.169h11.282a3.394 3.394 0 003.152-2.173l.017-.045a8.337 8.337 0 012.51 3.07.989.989 0 001.784-.854A10.306 10.306 0 0075.408 6.5l.681-1.779a2.459 2.459 0 00-1.807-3.288L68.607.277a13.7 13.7 0 00-5.482 0l-5.676 1.152a2.459 2.459 0 00-1.807 3.288l.629 1.643a10.271 10.271 0 00-4.76 8.07l-.469 7.4a2.972 2.972 0 00-.031.407v.083l-.352 5.563a6.318 6.318 0 006.306 6.717h1.271l.157.138.1.086v3.238a2.5 2.5 0 01-.8 1.763 2.155 2.155 0 00-1.659-.172l-12.969 3.918a4.848 4.848 0 00-3.4 3.847l-1.085 6.355a.989.989 0 001.949.333l1.085-6.355a2.882 2.882 0 012.019-2.286l12.976-3.915a.182.182 0 01.215.092l6.194 12.237a3.044 3.044 0 005.436 0l6.194-12.237a.181.181 0 01.215-.092l12.973 3.914a2.881 2.881 0 012.019 2.286l2.89 16.919a.918.918 0 01-.9 1.072h-6.129L84.1 56.28a.989.989 0 00-1.949.333l1.559 9.128H47.763l1.559-9.128a.989.989 0 00-1.949-.333l-1.616 9.461h-6.126a.918.918 0 01-.9-1.072l1.006-5.89a.989.989 0 00-1.949-.333l-1.006 5.89a2.9 2.9 0 002.854 3.383h52.206a2.895 2.895 0 002.858-3.382zM57.517 3.607a.475.475 0 01.326-.24l5.675-1.152a11.739 11.739 0 014.7 0l5.675 1.152a.481.481 0 01.353.643l-1.432 3.733a1.405 1.405 0 01-1.3.9H60.223a1.405 1.405 0 01-1.3-.9l-1.434-3.732a.475.475 0 01.028-.404zm21.323 24.4a4.344 4.344 0 01-3.66 4.564 11 11 0 002.456-5.155 2.953 2.953 0 001.148-.3zM53.8 31.256a4.3 4.3 0 01-1.167-3.245l.056-.888a2.956 2.956 0 001.148.3 11 11 0 002.456 5.155 4.293 4.293 0 01-2.493-1.322zm13.014 21.486l-.124.245a1.129 1.129 0 01-.059.1c-.007.01-.012.022-.019.031l-.04.051a1.059 1.059 0 01-.157.165l-.038.028a1.071 1.071 0 01-1.594-.374l-4.107-8.113H70.8zM71.8 42.9H59.675l-.764-1.509a4.464 4.464 0 001.56-3.32V36.36a9.463 9.463 0 005.254 1.5h.022A9.464 9.464 0 0071 36.36v1.706a4.464 4.464 0 001.56 3.32zm-.009-9.653c-1.829 1.575-3.238 2.61-6.053 2.644-2.814-.034-4.224-1.069-6.053-2.644-2.428-2.09-3.9-4.643-3.952-6.829a.989.989 0 00-.989-.968h-.753a1 1 0 01-1-1v-2.21A1 1 0 0153 22.1c0-.015 0-.03.007-.045a1 1 0 01.984-.82h.75a.989.989 0 00.989-.989v-1.223a5.654 5.654 0 013.81-5.154c2.9 2.958 6.464 5.648 16.22 6.551a.989.989 0 00.974.818h.75a1 1 0 01.984.82.1.1 0 00.007.045 1 1 0 01.01.136v2.206a1 1 0 01-1 1h-.755a.989.989 0 00-.989.968c-.047 2.187-1.524 4.739-3.952 6.83z" transform="translate(-36.736)" fill="url(#linear-gradient)"/></g></g></g></svg>